<svg width="25" height="25" viewBox="0 0 25 25" fill="none" xmlns="http://www.w3.org/2000/svg">
<path opacity="0.2" d="M4.88932 16.6787C3.77113 14.7937 3.37953 12.5654 3.78805 10.4121C4.19658 8.25876 5.37712 6.32867 7.10801 4.98419C8.8389 3.63972 11.0011 2.97337 13.1885 3.11025C15.3759 3.24713 17.4381 4.17784 18.9879 5.72761C20.5377 7.27737 21.4684 9.33959 21.6053 11.527C21.7422 13.7144 21.0758 15.8766 19.7314 17.6075C18.3869 19.3384 16.4568 20.5189 14.3035 20.9275C12.1502 21.336 9.92186 20.9444 8.03686 19.8262L8.03688 19.8261L4.92845 20.7143C4.79984 20.751 4.66375 20.7527 4.53428 20.7191C4.4048 20.6856 4.28665 20.618 4.19207 20.5235C4.0975 20.4289 4.02993 20.3107 3.99638 20.1813C3.96283 20.0518 3.96452 19.9157 4.00126 19.7871L4.88939 16.6787L4.88932 16.6787Z" fill="#514EFC"/>
<path d="M4.88932 16.6787C3.77113 14.7937 3.37953 12.5654 3.78805 10.4121C4.19658 8.25876 5.37712 6.32867 7.10801 4.98419C8.8389 3.63972 11.0011 2.97337 13.1885 3.11025C15.3759 3.24713 17.4381 4.17784 18.9879 5.72761C20.5377 7.27737 21.4684 9.33959 21.6053 11.527C21.7422 13.7144 21.0758 15.8766 19.7314 17.6075C18.3869 19.3384 16.4568 20.5189 14.3035 20.9275C12.1502 21.336 9.92186 20.9444 8.03686 19.8262L8.03688 19.8261L4.92845 20.7143C4.79984 20.751 4.66375 20.7527 4.53428 20.7191C4.4048 20.6856 4.28665 20.618 4.19207 20.5235C4.0975 20.4289 4.02993 20.3107 3.99638 20.1813C3.96283 20.0518 3.96452 19.9157 4.00126 19.7871L4.88939 16.6787L4.88932 16.6787Z" stroke="#514EFC" stroke-width="2" stroke-linecap="round" stroke-linejoin="round"/>
<path d="M9.63037 10.5851H15.6304" stroke="#514EFC" stroke-width="2" stroke-linecap="round" stroke-linejoin="round"/>
<path d="M9.63037 13.5851H15.6304" stroke="#514EFC" stroke-width="2" stroke-linecap="round" stroke-linejoin="round"/>
</svg>

