<svg width="25" height="25" viewBox="0 0 25 25" fill="none" xmlns="http://www.w3.org/2000/svg">
<path opacity="0.2" d="M9.30002 11.7866C10.078 13.3771 11.3672 14.6605 12.9613 15.4312C13.0779 15.4865 13.2069 15.5104 13.3356 15.5007C13.4643 15.4909 13.5882 15.4478 13.6952 15.3757L16.0423 13.8106C16.1461 13.7413 16.2655 13.6991 16.3898 13.6877C16.514 13.6763 16.6392 13.6961 16.7538 13.7452L21.1448 15.627C21.294 15.6904 21.4185 15.8005 21.4996 15.9408C21.5808 16.0811 21.6141 16.244 21.5947 16.4049C21.4559 17.4909 20.926 18.489 20.1042 19.2125C19.2825 19.936 18.2252 20.3351 17.1304 20.3351C13.7489 20.3351 10.5058 18.9918 8.11476 16.6008C5.72367 14.2097 4.38037 10.9667 4.38037 7.58514C4.38043 6.49031 4.77955 5.43303 5.50301 4.61128C6.22647 3.78953 7.22465 3.25965 8.31065 3.12086C8.47154 3.10139 8.6344 3.13474 8.77469 3.21587C8.91498 3.29701 9.0251 3.42154 9.08847 3.5707L10.972 7.9655C11.0207 8.07917 11.0405 8.20313 11.0297 8.32634C11.019 8.44954 10.9779 8.56816 10.9101 8.67165L9.35048 11.0547C9.27949 11.1619 9.23753 11.2857 9.22868 11.414C9.21984 11.5423 9.24442 11.6706 9.30002 11.7866V11.7866Z" fill="#514EFC"/>
<path d="M9.30002 11.7866C10.078 13.3771 11.3672 14.6605 12.9613 15.4312C13.0779 15.4865 13.2069 15.5104 13.3356 15.5007C13.4643 15.4909 13.5882 15.4478 13.6952 15.3757L16.0423 13.8106C16.1461 13.7413 16.2655 13.6991 16.3898 13.6877C16.514 13.6763 16.6392 13.6961 16.7538 13.7452L21.1448 15.627C21.294 15.6904 21.4185 15.8005 21.4996 15.9408C21.5808 16.0811 21.6141 16.244 21.5947 16.4049C21.4559 17.4909 20.926 18.489 20.1042 19.2125C19.2825 19.936 18.2252 20.3351 17.1304 20.3351C13.7489 20.3351 10.5058 18.9918 8.11476 16.6008C5.72367 14.2097 4.38037 10.9667 4.38037 7.58514C4.38043 6.49031 4.77955 5.43303 5.50301 4.61128C6.22647 3.78953 7.22465 3.25965 8.31065 3.12086C8.47154 3.10139 8.6344 3.13474 8.77469 3.21587C8.91498 3.29701 9.0251 3.42154 9.08847 3.5707L10.972 7.9655C11.0207 8.07917 11.0405 8.20313 11.0297 8.32634C11.019 8.44954 10.9779 8.56816 10.9101 8.67165L9.35048 11.0547C9.27949 11.1619 9.23753 11.2857 9.22868 11.414C9.21984 11.5423 9.24442 11.6706 9.30002 11.7866V11.7866Z" stroke="#514EFC" stroke-width="2" stroke-linecap="round" stroke-linejoin="round"/>
<path d="M15.5758 3.83514C16.8472 4.17708 18.0065 4.8471 18.9375 5.77808C19.8685 6.70907 20.5385 7.86833 20.8804 9.13976" stroke="#514EFC" stroke-width="2" stroke-linecap="round" stroke-linejoin="round"/>
<path d="M14.7991 6.73364C15.562 6.9388 16.2576 7.34081 16.8161 7.8994C17.3747 8.45799 17.7767 9.15355 17.9819 9.91641" stroke="#514EFC" stroke-width="2" stroke-linecap="round" stroke-linejoin="round"/>
</svg>
