<svg width="15" height="15" viewBox="0 0 15 15" fill="none" xmlns="http://www.w3.org/2000/svg">
<path fill-rule="evenodd" clip-rule="evenodd" d="M10.6309 6.6538C10.6309 7.24474 10.5145 7.82991 10.2883 8.37587C10.0622 8.92184 9.73066 9.41791 9.31286 9.8358C8.89496 10.2536 8.39889 10.5851 7.85292 10.8113C7.30696 11.0374 6.7218 11.1538 6.13085 11.1538C5.5399 11.1538 4.95474 11.0374 4.40877 10.8113C3.86281 10.5851 3.36673 10.2536 2.94887 9.8358C2.531 9.41791 2.19954 8.92184 1.97339 8.37587C1.74724 7.82991 1.63085 7.24474 1.63085 6.6538C1.63085 5.46032 2.10495 4.31573 2.94887 3.47182C3.79278 2.6279 4.93737 2.1538 6.13085 2.1538C7.32432 2.1538 8.46891 2.6279 9.31286 3.47182C10.1568 4.31573 10.6309 5.46032 10.6309 6.6538ZM9.81086 11.3938C8.60523 12.3298 7.08822 12.7711 5.56865 12.6279C4.04908 12.4848 2.64119 11.7679 1.6316 10.6232C0.622003 9.47851 0.0866027 7.99209 0.134383 6.46655C0.182173 4.941 0.809553 3.491 1.8888 2.41175C2.96806 1.3325 4.41805 0.705122 5.9436 0.657332C7.46915 0.609549 8.95556 1.14495 10.1003 2.15455C11.245 3.16414 11.9619 4.57203 12.105 6.0916C12.2482 7.61116 11.8069 9.12817 10.8709 10.3338L13.9109 13.3738C13.9846 13.4425 14.0437 13.5253 14.0847 13.6173C14.1257 13.7093 14.1477 13.8086 14.1495 13.9093C14.1513 14.01 14.1327 14.11 14.095 14.2034C14.0573 14.2968 14.0011 14.3816 13.9299 14.4528C13.8587 14.5241 13.7739 14.5802 13.6805 14.6179C13.5871 14.6556 13.4871 14.6742 13.3864 14.6724C13.2857 14.6706 13.1863 14.6486 13.0944 14.6076C13.0024 14.5666 12.9196 14.5075 12.8509 14.4338L9.81086 11.3938Z" fill="#1F2A33"/>
</svg>
